<mxfile host="app.diagrams.net" modified="2024-04-06T14:09:42.057Z" agent="Mozilla/5.0 (Windows NT 10.0; Win64; x64) AppleWebKit/537.36 (KHTML, like Gecko) Chrome/123.0.0.0 Safari/537.36" etag="eVOzvbkZgV3HZqLKw7js" version="24.2.2" type="device">
  <diagram name="Page-1" id="13e1069c-82ec-6db2-03f1-153e76fe0fe0">
    <mxGraphModel dx="1221" dy="725" grid="1" gridSize="10" guides="1" tooltips="1" connect="1" arrows="1" fold="1" page="1" pageScale="1" pageWidth="1100" pageHeight="850" background="none" math="0" shadow="0">
      <root>
        <mxCell id="0" />
        <mxCell id="1" parent="0" />
        <mxCell id="Ip2iQFSxtUsgC6kapPmH-1" value="Stránka" style="shape=umlLifeline;perimeter=lifelinePerimeter;whiteSpace=wrap;html=1;container=1;collapsible=0;recursiveResize=0;outlineConnect=0;rounded=1;shadow=0;comic=0;labelBackgroundColor=none;strokeWidth=1;fontFamily=Verdana;fontSize=12;align=center;" vertex="1" parent="1">
          <mxGeometry x="430" y="90" width="100" height="690" as="geometry" />
        </mxCell>
        <mxCell id="Ip2iQFSxtUsgC6kapPmH-2" value="" style="html=1;points=[];perimeter=orthogonalPerimeter;rounded=0;shadow=0;comic=0;labelBackgroundColor=none;strokeWidth=1;fontFamily=Verdana;fontSize=12;align=center;" vertex="1" parent="Ip2iQFSxtUsgC6kapPmH-1">
          <mxGeometry x="45" y="100" width="10" height="590" as="geometry" />
        </mxCell>
        <mxCell id="Ip2iQFSxtUsgC6kapPmH-3" value="4. Zobrazí page pre požiciavanie" style="html=1;verticalAlign=bottom;endArrow=block;labelBackgroundColor=none;fontFamily=Verdana;fontSize=12;" edge="1" parent="Ip2iQFSxtUsgC6kapPmH-1" target="Ip2iQFSxtUsgC6kapPmH-8">
          <mxGeometry relative="1" as="geometry">
            <mxPoint x="45" y="170.5" as="sourcePoint" />
            <mxPoint x="215" y="170" as="targetPoint" />
          </mxGeometry>
        </mxCell>
        <mxCell id="Ip2iQFSxtUsgC6kapPmH-25" value="14. Zmení ownerID exempláru" style="html=1;verticalAlign=bottom;endArrow=block;labelBackgroundColor=none;fontFamily=Verdana;fontSize=12;" edge="1" parent="Ip2iQFSxtUsgC6kapPmH-1">
          <mxGeometry relative="1" as="geometry">
            <mxPoint x="55" y="580" as="sourcePoint" />
            <mxPoint x="350" y="580" as="targetPoint" />
          </mxGeometry>
        </mxCell>
        <mxCell id="Ip2iQFSxtUsgC6kapPmH-4" value="Server" style="shape=umlLifeline;perimeter=lifelinePerimeter;whiteSpace=wrap;html=1;container=1;collapsible=0;recursiveResize=0;outlineConnect=0;rounded=1;shadow=0;comic=0;labelBackgroundColor=none;strokeWidth=1;fontFamily=Verdana;fontSize=12;align=center;" vertex="1" parent="1">
          <mxGeometry x="730" y="90" width="100" height="720" as="geometry" />
        </mxCell>
        <mxCell id="Ip2iQFSxtUsgC6kapPmH-5" value="" style="html=1;points=[];perimeter=orthogonalPerimeter;rounded=0;shadow=0;comic=0;labelBackgroundColor=none;strokeWidth=1;fontFamily=Verdana;fontSize=12;align=center;" vertex="1" parent="Ip2iQFSxtUsgC6kapPmH-4">
          <mxGeometry x="45" y="120" width="10" height="600" as="geometry" />
        </mxCell>
        <mxCell id="Ip2iQFSxtUsgC6kapPmH-6" value="Databáza" style="shape=umlLifeline;perimeter=lifelinePerimeter;whiteSpace=wrap;html=1;container=1;collapsible=0;recursiveResize=0;outlineConnect=0;rounded=1;shadow=0;comic=0;labelBackgroundColor=none;strokeWidth=1;fontFamily=Verdana;fontSize=12;align=center;" vertex="1" parent="1">
          <mxGeometry x="1010" y="95" width="100" height="720" as="geometry" />
        </mxCell>
        <mxCell id="Ip2iQFSxtUsgC6kapPmH-7" value="" style="html=1;points=[];perimeter=orthogonalPerimeter;rounded=0;shadow=0;comic=0;labelBackgroundColor=none;strokeWidth=1;fontFamily=Verdana;fontSize=12;align=center;" vertex="1" parent="Ip2iQFSxtUsgC6kapPmH-6">
          <mxGeometry x="45" y="130" width="10" height="590" as="geometry" />
        </mxCell>
        <mxCell id="Ip2iQFSxtUsgC6kapPmH-8" value="Zamestnanec" style="shape=umlLifeline;perimeter=lifelinePerimeter;whiteSpace=wrap;html=1;container=1;collapsible=0;recursiveResize=0;outlineConnect=0;rounded=1;shadow=0;comic=0;labelBackgroundColor=none;strokeWidth=1;fontFamily=Verdana;fontSize=12;align=center;" vertex="1" parent="1">
          <mxGeometry x="110" y="90" width="100" height="560" as="geometry" />
        </mxCell>
        <mxCell id="Ip2iQFSxtUsgC6kapPmH-9" value="" style="html=1;points=[];perimeter=orthogonalPerimeter;rounded=0;shadow=0;comic=0;labelBackgroundColor=none;strokeWidth=1;fontFamily=Verdana;fontSize=12;align=center;" vertex="1" parent="Ip2iQFSxtUsgC6kapPmH-8">
          <mxGeometry x="45" y="100" width="10" height="460" as="geometry" />
        </mxCell>
        <mxCell id="Ip2iQFSxtUsgC6kapPmH-10" value="1. Klikne na &quot;požičaný exemplár&quot;" style="html=1;verticalAlign=bottom;endArrow=block;entryX=0;entryY=0;labelBackgroundColor=none;fontFamily=Verdana;fontSize=12;edgeStyle=elbowEdgeStyle;elbow=vertical;" edge="1" parent="1" source="Ip2iQFSxtUsgC6kapPmH-9" target="Ip2iQFSxtUsgC6kapPmH-2">
          <mxGeometry relative="1" as="geometry">
            <mxPoint x="230" y="200" as="sourcePoint" />
          </mxGeometry>
        </mxCell>
        <mxCell id="Ip2iQFSxtUsgC6kapPmH-11" value="2. Vypýta page pre požičiavanie" style="html=1;verticalAlign=bottom;endArrow=block;entryX=0;entryY=0;labelBackgroundColor=none;fontFamily=Verdana;fontSize=12;edgeStyle=elbowEdgeStyle;elbow=vertical;" edge="1" parent="1" source="Ip2iQFSxtUsgC6kapPmH-2" target="Ip2iQFSxtUsgC6kapPmH-5">
          <mxGeometry relative="1" as="geometry">
            <mxPoint x="560" y="210" as="sourcePoint" />
          </mxGeometry>
        </mxCell>
        <mxCell id="Ip2iQFSxtUsgC6kapPmH-12" value="3. Vráti page pre požičiavanie" style="html=1;verticalAlign=bottom;endArrow=block;labelBackgroundColor=none;fontFamily=Verdana;fontSize=12;" edge="1" parent="1" source="Ip2iQFSxtUsgC6kapPmH-4" target="Ip2iQFSxtUsgC6kapPmH-1">
          <mxGeometry relative="1" as="geometry">
            <mxPoint x="770" y="240" as="sourcePoint" />
            <mxPoint x="530" y="240" as="targetPoint" />
            <Array as="points">
              <mxPoint x="620" y="240" />
            </Array>
          </mxGeometry>
        </mxCell>
        <mxCell id="Ip2iQFSxtUsgC6kapPmH-13" value="6. Vypýta zoznam kategórií" style="html=1;verticalAlign=bottom;endArrow=block;labelBackgroundColor=none;fontFamily=Verdana;fontSize=12;" edge="1" parent="1">
          <mxGeometry relative="1" as="geometry">
            <mxPoint x="481" y="340" as="sourcePoint" />
            <mxPoint x="776" y="340" as="targetPoint" />
          </mxGeometry>
        </mxCell>
        <mxCell id="Ip2iQFSxtUsgC6kapPmH-14" value="9. Vráti zoznam kategórií" style="html=1;verticalAlign=bottom;endArrow=block;labelBackgroundColor=none;fontFamily=Verdana;fontSize=12;exitX=0.133;exitY=0.049;exitDx=0;exitDy=0;exitPerimeter=0;" edge="1" parent="1">
          <mxGeometry relative="1" as="geometry">
            <mxPoint x="771" y="439" as="sourcePoint" />
            <mxPoint x="475" y="439" as="targetPoint" />
            <Array as="points">
              <mxPoint x="615" y="439" />
            </Array>
            <mxPoint as="offset" />
          </mxGeometry>
        </mxCell>
        <mxCell id="Ip2iQFSxtUsgC6kapPmH-15" value="7. Zisti zoznam kategórií" style="html=1;verticalAlign=bottom;endArrow=block;labelBackgroundColor=none;fontFamily=Verdana;fontSize=12;" edge="1" parent="1">
          <mxGeometry relative="1" as="geometry">
            <mxPoint x="780" y="360.5" as="sourcePoint" />
            <mxPoint x="1045" y="360.5" as="targetPoint" />
          </mxGeometry>
        </mxCell>
        <mxCell id="Ip2iQFSxtUsgC6kapPmH-16" value="8. Vráti zoznam kategórií" style="html=1;verticalAlign=bottom;endArrow=block;labelBackgroundColor=none;fontFamily=Verdana;fontSize=12;" edge="1" parent="1">
          <mxGeometry relative="1" as="geometry">
            <mxPoint x="1045" y="400" as="sourcePoint" />
            <mxPoint x="780" y="400" as="targetPoint" />
          </mxGeometry>
        </mxCell>
        <mxCell id="Ip2iQFSxtUsgC6kapPmH-17" value="10. Zobrazí zoznam kategórií" style="html=1;verticalAlign=bottom;endArrow=block;labelBackgroundColor=none;fontFamily=Verdana;fontSize=12;" edge="1" parent="1">
          <mxGeometry relative="1" as="geometry">
            <mxPoint x="470" y="470" as="sourcePoint" />
            <mxPoint x="155" y="470" as="targetPoint" />
            <Array as="points">
              <mxPoint x="310" y="470" />
            </Array>
          </mxGeometry>
        </mxCell>
        <mxCell id="Ip2iQFSxtUsgC6kapPmH-18" value="5. Klikne na vybrať kategóriu" style="html=1;verticalAlign=bottom;endArrow=block;labelBackgroundColor=none;fontFamily=Verdana;fontSize=12;" edge="1" parent="1">
          <mxGeometry relative="1" as="geometry">
            <mxPoint x="155" y="330" as="sourcePoint" />
            <mxPoint x="480" y="330.5" as="targetPoint" />
          </mxGeometry>
        </mxCell>
        <mxCell id="Ip2iQFSxtUsgC6kapPmH-19" value="11. Pridá informácie o exemplári" style="html=1;verticalAlign=bottom;endArrow=block;labelBackgroundColor=none;fontFamily=Verdana;fontSize=12;" edge="1" parent="1">
          <mxGeometry relative="1" as="geometry">
            <mxPoint x="160" y="520" as="sourcePoint" />
            <mxPoint x="480" y="521" as="targetPoint" />
          </mxGeometry>
        </mxCell>
        <mxCell id="Ip2iQFSxtUsgC6kapPmH-21" value="13. Klikne na uložiť exemplár" style="html=1;verticalAlign=bottom;endArrow=block;labelBackgroundColor=none;fontFamily=Verdana;fontSize=12;" edge="1" parent="1">
          <mxGeometry relative="1" as="geometry">
            <mxPoint x="160" y="630" as="sourcePoint" />
            <mxPoint x="470" y="630" as="targetPoint" />
          </mxGeometry>
        </mxCell>
        <mxCell id="Ip2iQFSxtUsgC6kapPmH-22" value="12. Vyberie inštitúciu, z ktorej bol požičaný" style="html=1;verticalAlign=bottom;endArrow=block;labelBackgroundColor=none;fontFamily=Verdana;fontSize=12;" edge="1" parent="1">
          <mxGeometry relative="1" as="geometry">
            <mxPoint x="160" y="570" as="sourcePoint" />
            <mxPoint x="480" y="571" as="targetPoint" />
          </mxGeometry>
        </mxCell>
        <mxCell id="Ip2iQFSxtUsgC6kapPmH-23" value="15. Pošle údaje o požičanom exemplári" style="html=1;verticalAlign=bottom;endArrow=block;labelBackgroundColor=none;fontFamily=Verdana;fontSize=12;" edge="1" parent="1">
          <mxGeometry relative="1" as="geometry">
            <mxPoint x="480" y="730" as="sourcePoint" />
            <mxPoint x="775" y="730" as="targetPoint" />
          </mxGeometry>
        </mxCell>
        <mxCell id="Ip2iQFSxtUsgC6kapPmH-24" value="16. Uloží exemplár do databázy" style="html=1;verticalAlign=bottom;endArrow=block;labelBackgroundColor=none;fontFamily=Verdana;fontSize=12;" edge="1" parent="1">
          <mxGeometry relative="1" as="geometry">
            <mxPoint x="780" y="760" as="sourcePoint" />
            <mxPoint x="1060" y="760" as="targetPoint" />
          </mxGeometry>
        </mxCell>
      </root>
    </mxGraphModel>
  </diagram>
</mxfile>
